<svg xmlns="http://www.w3.org/2000/svg" version="1.1" xmlns:xlink="http://www.w3.org/1999/xlink" xmlns:svgjs="http://svgjs.dev/svgjs" width="1000" height="1000" viewBox="0 0 1000 1000"><rect width="1000" height="1000" fill="#000000"></rect><g transform="matrix(0.7,0,0,0.7,149.57575757575756,282.1265587044535)"><svg viewBox="0 0 396 247" data-background-color="#ffffff" preserveAspectRatio="xMidYMid meet" height="623" width="1000" xmlns="http://www.w3.org/2000/svg" xmlns:xlink="http://www.w3.org/1999/xlink"><g id="tight-bounds" transform="matrix(1,0,0,1,0.2400000000000091,-0.09999999999999432)"><svg viewBox="0 0 395.52 247.2" height="247.2" width="395.52"><g><svg></svg></g><g><svg viewBox="0 0 395.52 247.2" height="247.2" width="395.52"><g transform="matrix(1,0,0,1,39.55199999999999,88.26920799792262)"><svg viewBox="0 0 316.416 70.66158400415476" height="70.66158400415476" width="316.416"><g><svg viewBox="0 0 316.416 70.66158400415476" height="70.66158400415476" width="316.416"><g><svg viewBox="0 0 316.416 70.66158400415476" height="70.66158400415476" width="316.416"><g><svg viewBox="0 0 316.416 70.66158400415476" height="70.66158400415476" width="316.416"><g id="textblocktransform"><svg viewBox="0 0 316.416 70.66158400415476" height="70.66158400415476" width="316.416" id="textblock"><g><svg viewBox="0 0 316.416 70.66158400415476" height="70.66158400415476" width="316.416"><g transform="matrix(1,0,0,1,0,0)"><svg width="316.416" viewBox="-3.5499999821186066 -39.5 193.54000854492188 44" height="70.66158400415476" data-palette-color="#111111"><path d="M7.65 0L1.5 0Q1.1 0 0.78-0.33 0.45-0.65 0.45-1.05L0.45-1.05Q0.45-1.3 0.5-1.5L0.5-1.5 12.25-33.6Q12.4-34.15 12.88-34.58 13.35-35 14.2-35L14.2-35 21.6-35Q22.45-35 22.93-34.58 23.4-34.15 23.55-33.6L23.55-33.6 35.25-1.5Q35.35-1.3 35.35-1.05L35.35-1.05Q35.35-0.65 35.02-0.33 34.7 0 34.25 0L34.25 0 28.1 0Q27.35 0 26.98-0.38 26.6-0.75 26.5-1.05L26.5-1.05 24.55-6.15 11.2-6.15 9.3-1.05Q9.2-0.75 8.85-0.38 8.5 0 7.65 0L7.65 0ZM17.9-26.55L13.25-13.35 22.55-13.35 17.9-26.55ZM46.1 0L39.75 0Q39.2 0 38.85-0.38 38.5-0.75 38.5-1.25L38.5-1.25 38.5-7.6Q38.5-8.15 38.85-8.5 39.2-8.85 39.75-8.85L39.75-8.85 46.1-8.85Q46.6-8.85 46.97-8.5 47.35-8.15 47.35-7.6L47.35-7.6 47.35-1.25Q47.35-0.75 46.97-0.38 46.6 0 46.1 0L46.1 0ZM61.2 0L54.75 0Q54.2 0 53.85-0.38 53.5-0.75 53.5-1.25L53.5-1.25 53.5-33.75Q53.5-34.3 53.85-34.65 54.2-35 54.75-35L54.75-35 68.35-35Q74.85-35 78.55-32.02 82.25-29.05 82.25-23.6L82.25-23.6Q82.25-20.05 80.55-17.6 78.85-15.15 76.05-13.9L76.05-13.9 82.9-1.6Q83.05-1.3 83.05-1.05L83.05-1.05Q83.05-0.65 82.72-0.33 82.4 0 82 0L82 0 75.35 0Q74.4 0 73.95-0.48 73.5-0.95 73.3-1.35L73.3-1.35 67.6-12.35 62.5-12.35 62.5-1.25Q62.5-0.75 62.12-0.38 61.75 0 61.2 0L61.2 0ZM62.5-28.05L62.5-19.45 68.25-19.45Q70.6-19.45 71.77-20.6 72.95-21.75 72.95-23.7L72.95-23.7Q72.95-25.65 71.82-26.85 70.7-28.05 68.25-28.05L68.25-28.05 62.5-28.05ZM94.84 0L88.49 0Q87.94 0 87.59-0.38 87.24-0.75 87.24-1.25L87.24-1.25 87.24-7.6Q87.24-8.15 87.59-8.5 87.94-8.85 88.49-8.85L88.49-8.85 94.84-8.85Q95.34-8.85 95.72-8.5 96.09-8.15 96.09-7.6L96.09-7.6 96.09-1.25Q96.09-0.75 95.72-0.38 95.34 0 94.84 0L94.84 0ZM109.49 0L103.49 0Q102.99 0 102.62-0.38 102.24-0.75 102.24-1.25L102.24-1.25 102.24-33.75Q102.24-34.3 102.62-34.65 102.99-35 103.49-35L103.49-35 108.89-35Q109.74-35 110.14-34.58 110.54-34.15 110.64-33.9L110.64-33.9 119.44-18.15 128.24-33.9Q128.39-34.15 128.77-34.58 129.14-35 129.99-35L129.99-35 135.34-35Q135.89-35 136.27-34.65 136.64-34.3 136.64-33.75L136.64-33.75 136.64-1.25Q136.64-0.75 136.27-0.38 135.89 0 135.34 0L135.34 0 129.39 0Q128.84 0 128.47-0.38 128.09-0.75 128.09-1.25L128.09-1.25 128.09-20 122.49-9.55Q122.24-9.1 121.84-8.75 121.44-8.4 120.74-8.4L120.74-8.4 118.14-8.4Q117.44-8.4 117.04-8.75 116.64-9.1 116.39-9.55L116.39-9.55 110.74-20 110.74-1.25Q110.74-0.75 110.39-0.38 110.04 0 109.49 0L109.49 0ZM150.44 0L144.09 0Q143.54 0 143.19-0.38 142.84-0.75 142.84-1.25L142.84-1.25 142.84-7.6Q142.84-8.15 143.19-8.5 143.54-8.85 144.09-8.85L144.09-8.85 150.44-8.85Q150.94-8.85 151.31-8.5 151.69-8.15 151.69-7.6L151.69-7.6 151.69-1.25Q151.69-0.75 151.31-0.38 150.94 0 150.44 0L150.44 0ZM170.89 0.5L170.89 0.5Q165.89 0.5 162.59-0.93 159.29-2.35 157.59-4.65 155.89-6.95 155.79-9.55L155.79-9.55Q155.79-9.95 156.11-10.28 156.44-10.6 156.89-10.6L156.89-10.6 163.19-10.6Q163.89-10.6 164.26-10.35 164.64-10.1 164.94-9.7L164.94-9.7Q165.34-8.95 166.06-8.25 166.79-7.55 167.99-7.13 169.19-6.7 170.89-6.7L170.89-6.7Q173.79-6.7 175.26-7.6 176.74-8.5 176.74-10.05L176.74-10.05Q176.74-11.2 175.94-11.9 175.14-12.6 173.36-13.18 171.59-13.75 168.64-14.35L168.64-14.35Q164.84-15.15 162.16-16.43 159.49-17.7 158.09-19.78 156.69-21.85 156.69-24.95L156.69-24.95Q156.69-28 158.41-30.4 160.14-32.8 163.24-34.15 166.34-35.5 170.59-35.5L170.59-35.5Q174.04-35.5 176.66-34.6 179.29-33.7 181.09-32.2 182.89-30.7 183.81-29.03 184.74-27.35 184.79-25.75L184.79-25.75Q184.79-25.35 184.51-25.03 184.24-24.7 183.74-24.7L183.74-24.7 177.14-24.7Q176.59-24.7 176.19-24.9 175.79-25.1 175.49-25.55L175.49-25.55Q175.19-26.65 173.91-27.48 172.64-28.3 170.59-28.3L170.59-28.3Q168.39-28.3 167.16-27.53 165.94-26.75 165.94-25.15L165.94-25.15Q165.94-24.15 166.61-23.4 167.29-22.65 168.86-22.1 170.44-21.55 173.19-20.95L173.19-20.95Q177.74-20.1 180.54-18.82 183.34-17.55 184.66-15.53 185.99-13.5 185.99-10.45L185.99-10.45Q185.99-7.05 184.04-4.6 182.09-2.15 178.71-0.83 175.34 0.5 170.89 0.5Z" opacity="1" transform="matrix(1,0,0,1,0,0)" fill="#ffffff" class="undefined-text-0" data-fill-palette-color="primary" id="text-0"></path></svg></g></svg></g></svg></g></svg></g><g></g></svg></g></svg></g></svg></g><g mask="url(&quot;#f190bebf-3150-4e53-b38c-efd94742c1bd&quot;)"><g transform="matrix(15.325, 0, 0, 15.325, 75.16765829086303, 1)"><svg xmlns="http://www.w3.org/2000/svg" version="1.1" data-icon="cog" viewBox="-2.384185791015625e-7 0 15.999000549316406 16" x="0" y="0" width="15.999000549316406" height="16" class="icon-none" data-fill-palette-color="accent" id="none"><path d="M7 0l-1 2-0.906 0.313-2.094-0.813-1.5 1.5 0.813 2.094-0.313 0.906-2 1v2l2 1c0.1 0.3 0.206 0.606 0.406 0.906l-0.906 2.094 1.5 1.5 2.094-0.813 0.906 0.313 1 2h2l1-2c0.3-0.1 0.606-0.206 0.906-0.406l2.094 0.813 1.5-1.5-0.813-2.094c0.1-0.3 0.306-0.606 0.406-0.906l1.906-0.906v-2l-2-1c-0.1-0.3-0.206-0.606-0.406-0.906l0.906-2.094-1.5-1.5-2.094 0.813-0.906-0.313-1-2h-2z m1 5c1.7 0 3 1.3 3 3s-1.3 3-3 3-3-1.3-3-3 1.3-3 3-3z" fill="#ffffff" data-fill-palette-color="accent"></path></svg></g></g></svg></g><defs><mask id="f190bebf-3150-4e53-b38c-efd94742c1bd"><rect width="640" height="400" fill="white"></rect><rect width="348.05760000000004" height="98.5934048317424" fill="black" y="74.30329758412879" x="23.731199999999973" id="transform-me"></rect></mask></defs></svg><rect width="395.52" height="247.2" fill="none" stroke="none" visibility="hidden"></rect></g></svg></g></svg>