<svg xmlns="http://www.w3.org/2000/svg" xml:space="preserve" width="1.70666in" height="1.70666in" version="1.1" style="shape-rendering:geometricPrecision; text-rendering:geometricPrecision; image-rendering:optimizeQuality; fill-rule:evenodd; clip-rule:evenodd" viewBox="0 0 1707 1707" xmlns:xlink="http://www.w3.org/1999/xlink">
 <defs>
  <style type="text/css">
   
    .fil0 {fill:#000002}
   
  </style>
 </defs>
 <g id="Layer_x0020_1">
  <metadata id="CorelCorpID_0Corel-Layer"></metadata>
  <path class="fil0" d="M759 1294l-373 0c-29,0 -29,-46 0,-46l373 0c29,0 29,46 0,46zm82 128l-565 0c-13,0 -23,-10 -23,-22l0 -1207c0,-13 10,-23 23,-23l279 0c0,-100 -11,-84 101,-84 -4,-46 32,-86 78,-86 46,0 82,40 77,86 113,0 102,-16 102,84l234 0c12,0 22,10 22,23l0 901c158,12 287,145 284,307 0,169 -137,306 -306,306 -162,0 -295,-126 -306,-285zm-240 -1168l266 0 0 -123 -87 0c-18,0 -29,-20 -19,-35 14,-21 -1,-50 -27,-50 -26,0 -41,29 -27,50 9,15 -2,35 -19,35l-87 0 0 123zm523 885c-125,11 -227,114 -238,238 33,0 75,-8 75,23 0,30 -42,22 -75,22 11,127 112,227 238,238 0,-32 -8,-74 23,-74 30,0 22,42 22,74 126,-11 227,-111 238,-238 -32,0 -74,8 -74,-22 0,-31 42,-23 74,-23 -11,-126 -112,-227 -238,-238 0,33 8,75 -22,75 -31,0 -23,-42 -23,-75zm-825 238l542 0c8,-116 85,-219 193,-262 28,-12 59,-19 90,-21l0 -879 -211 0c0,25 3,49 -3,72l-4 6 0 0 -1 1 0 0 -1 0 0 1 -1 0 0 0 0 1 -1 0 -1 0 0 1 -2 0 0 1 -2 0 -4 1c-17,3 -275,1 -315,1 -13,0 -23,-11 -23,-23l0 -62 -256 0 0 1162zm794 97c-19,0 -30,-24 -16,-38l46 -46 0 -109c0,-29 45,-29 45,0l0 119c0,6 -2,12 -7,16l-51 52c-5,4 -11,6 -17,6zm-162 -1046l-440 0c-29,0 -29,-45 0,-45l440 0c30,0 30,45 0,45zm105 124l-650 0c-29,0 -29,-45 0,-45l650 0c30,0 30,45 0,45zm0 124l-650 0c-29,0 -29,-46 0,-46l650 0c30,0 30,46 0,46zm0 123l-650 0c-29,0 -29,-45 0,-45l650 0c30,0 30,45 0,45zm0 124l-650 0c-29,0 -29,-46 0,-46l650 0c30,0 30,46 0,46zm0 123l-650 0c-29,0 -29,-45 0,-45l650 0c30,0 30,45 0,45zm-185 124l-465 0c-29,0 -29,-45 0,-45l465 0c29,0 29,45 0,45z" id="id_101" style="fill: rgb(255, 255, 255);"></path>
 </g>
</svg>