<svg xmlns="http://www.w3.org/2000/svg" xml:space="preserve" width="1.70666in" height="1.70666in" version="1.1" style="shape-rendering:geometricPrecision; text-rendering:geometricPrecision; image-rendering:optimizeQuality; fill-rule:evenodd; clip-rule:evenodd" viewBox="0 0 1707 1707" xmlns:xlink="http://www.w3.org/1999/xlink">
 <defs>
  <style type="text/css">
   
    .fil0 {fill:url(#id0)}
   
  </style>
  <linearGradient id="id0" gradientUnits="userSpaceOnUse" x1="0.795276" y1="853.331" x2="1705.87" y2="853.331">
   <stop offset="0" style="stop-opacity: 1; stop-color: rgb(255, 255, 255);" id="id_102"></stop>
   <stop offset="1" style="stop-opacity: 1; stop-color: rgb(255, 255, 255);" id="id_103"></stop>
  </linearGradient>
 </defs>
 <g id="Layer_x0020_1">
  <metadata id="CorelCorpID_0Corel-Layer"></metadata>
  <path class="fil0" d="M178 842c-28,-44 -37,-84 -27,-120 10,-34 36,-53 49,-61 21,-39 65,-64 115,-64 51,0 95,25 115,64 14,8 41,27 51,62 11,35 2,75 -26,119 -5,18 17,89 -52,144l19 33 39 1c43,-75 124,-126 217,-126l34 0 33 -57c-97,-73 -67,-178 -73,-199 -39,-59 -51,-113 -37,-160 13,-47 49,-72 66,-81 26,-52 84,-86 152,-86 67,0 126,33 151,86 18,9 55,34 69,82 14,47 2,100 -36,159 -6,20 24,127 -75,199l33 57 34 0c92,0 174,51 217,126l39 -1 19 -33c-68,-56 -46,-126 -51,-144 -28,-44 -37,-84 -27,-120 10,-34 36,-53 50,-61 20,-39 64,-64 114,-64 51,0 95,25 115,64 14,8 41,27 51,62 11,35 2,75 -26,119 -5,18 17,89 -52,144l19 33 21 0c104,0 188,85 188,188l0 165c0,13 -11,23 -23,23l-1659 0c-13,0 -23,-10 -23,-23l0 -165c0,-103 84,-188 188,-188l21 0 19 -33c-50,-41 -51,-85 -51,-144zm608 -34c22,10 42,18 68,18 74,0 136,-60 136,-136l0 -57c-6,-176 -269,-119 -272,-1l0 58c0,50 28,94 68,118zm0 52l-33 56 100 132 100 -132 -32 -56c-42,17 -93,16 -135,0zm-98 -289c62,-110 274,-145 334,-5 11,-28 13,-52 6,-74 -15,-52 -55,-49 -63,-69 -35,-86 -189,-86 -225,0 -8,20 -46,17 -61,69 -6,23 -3,49 9,79zm-192 483c-14,35 -22,51 -22,91l0 204 110 0 0 -156c0,-30 47,-30 47,0l0 156 445 0 0 -156c0,-30 47,-30 47,0l0 156 109 0 0 -210c-2,-106 -91,-198 -203,-198l-36 0 -121 160c-9,12 -28,12 -37,0l-121 -160 -36 0c-80,0 -149,46 -182,113zm-61 30c2,-6 3,-12 5,-18l-20 0 -86 114c-9,12 -28,12 -37,0l-85 -114 -23 0c-78,0 -142,63 -142,141l0 142 381 0 0 -204c0,-21 2,-41 7,-61zm831 -18c9,26 13,52 13,79l0 204 380 0 0 -142c0,-78 -63,-141 -141,-141l-23 0 -86 114c-8,11 -28,11 -37,0l-85 -114 -21 0zm125 -49c-16,0 -32,-3 -46,-8l-19 32 65 86 65 -86 -19 -32c-14,5 -30,8 -46,8zm-92 -181c0,52 -3,93 49,123 59,34 135,-13 135,-81l0 -41c-4,-119 -180,-80 -184,-1zm-26 -59c53,-72 189,-89 239,-6 14,-61 -38,-65 -46,-85 -24,-57 -127,-57 -151,0 -8,20 -62,25 -42,91zm-865 59l0 0c-8,-122 -183,-74 -184,0 0,52 -3,92 49,123 59,35 135,-14 135,-81l0 -42zm-92 181c-16,0 -32,-3 -46,-8l-19 32 65 86 65 -86 -19 -32c-14,5 -30,8 -46,8zm120 -246c15,-61 -37,-65 -45,-85 -24,-57 -127,-57 -151,0 -8,20 -63,25 -42,91 54,-73 189,-89 238,-6z" id="id_101"></path>
 </g>
</svg>